<svg xmlns="http://www.w3.org/2000/svg" xmlns:xlink="http://www.w3.org/1999/xlink" version="1.1" x="0px" y="0px" viewBox="0 0 100 125" enable-background="new 0 0 100 100" xml:space="preserve"><g><g><path fill="#000000" d="M31.9,22h-10c-1.2,0-2.1,1-2.1,2.1v8.6c0,0.4,0.3,0.7,0.7,0.7c0.4,0,0.7-0.3,0.7-0.7v-8.6    c0-0.4,0.3-0.7,0.7-0.7h10c0.4,0,0.7-0.3,0.7-0.7C32.6,22.3,32.3,22,31.9,22z"/><path fill="#000000" d="M77.6,22h-10c-0.4,0-0.7,0.3-0.7,0.7c0,0.4,0.3,0.7,0.7,0.7h10c0.4,0,0.7,0.3,0.7,0.7v8.6    c0,0.4,0.3,0.7,0.7,0.7c0.4,0,0.7-0.3,0.7-0.7v-8.6C79.7,23,78.8,22,77.6,22z"/><path fill="#000000" d="M79,66.3c-0.4,0-0.7,0.3-0.7,0.7v8.6c0,0.4-0.3,0.7-0.7,0.7h-10c-0.4,0-0.7,0.3-0.7,0.7    c0,0.4,0.3,0.7,0.7,0.7h10c1.2,0,2.1-1,2.1-2.1V67C79.7,66.6,79.4,66.3,79,66.3z"/><path fill="#000000" d="M20.4,66.3c-0.4,0-0.7,0.3-0.7,0.7v8.6c0,1.2,1,2.1,2.1,2.1h10c0.4,0,0.7-0.3,0.7-0.7    c0-0.4-0.3-0.7-0.7-0.7h-10c-0.4,0-0.7-0.3-0.7-0.7V67C21.1,66.6,20.8,66.3,20.4,66.3z"/></g><rect x="40.7" y="40.9" fill="#000000" width="18" height="18"/></g><text x="0" y="115" fill="#000000" font-size="5px" font-weight="bold" font-family="'Helvetica Neue', Helvetica, Arial-Unicode, Arial, Sans-serif">Created by icons.design</text><text x="0" y="120" fill="#000000" font-size="5px" font-weight="bold" font-family="'Helvetica Neue', Helvetica, Arial-Unicode, Arial, Sans-serif">from the Noun Project</text></svg>