<svg xmlns="http://www.w3.org/2000/svg" xmlns:xlink="http://www.w3.org/1999/xlink" version="1.1" x="0px" y="0px" viewBox="0 0 100 100" enable-background="new 0 0 100 100" xml:space="preserve"><g><path fill="#ffffff" d="M99.999,68.332c0,5.5-4.5,10-10,10H10c-5.5,0-10-4.5-10-10V10C0,4.5,4.5,0,10,0h79.999c5.5,0,10,4.5,10,10V68.332z"></path></g><g><path fill="#ffffff" d="M41.688,95.68c1.384,2.377,3.647,2.377,5.031,0l16.434-28.229c1.384-2.377,0.266-4.321-2.484-4.321h-32.93   c-2.75,0-3.868,1.944-2.484,4.321L41.688,95.68c1.384,2.377,3.647,2.377,5.031,0l16.434-28.229   c1.384-2.377,0.266-4.321-2.484-4.321h-32.93c-2.75,0-3.868,1.944-2.484,4.321L41.688,95.68z"></path></g></svg>
