<svg xmlns="http://www.w3.org/2000/svg" xmlns:xlink="http://www.w3.org/1999/xlink" version="1.1" x="0px" y="0px" viewBox="0 0 100 125" enable-background="new 0 0 100 100" xml:space="preserve"><g><g><path fill="#ffffff" d="M11.476,66.845c-1.025,0-1.898-0.783-1.99-1.824c-0.04-0.45-0.095-0.914-0.149-1.387    c-0.277-2.371-0.623-5.322,0.688-8.052c1.57-3.272,5.917-3.191,8.238-2.626c1.074,0.261,1.732,1.342,1.472,2.415    c-0.26,1.072-1.34,1.727-2.409,1.474c-1.055-0.25-3.291-0.372-3.695,0.469c-0.809,1.685-0.561,3.805-0.32,5.855    c0.06,0.512,0.118,1.013,0.161,1.5c0.098,1.1-0.716,2.07-1.816,2.168C11.594,66.842,11.534,66.845,11.476,66.845z"/></g><g><path fill="#ffffff" d="M18.598,63.696c-1.026,0-1.899-0.785-1.99-1.826c-0.04-0.453-0.095-0.921-0.15-1.397c-0.276-2.367-0.62-5.313,0.689-8.04    c1.572-3.269,5.919-3.189,8.238-2.627c1.073,0.26,1.733,1.341,1.473,2.414c-0.259,1.071-1.335,1.728-2.409,1.475    c-1.053-0.248-3.293-0.37-3.696,0.472c-0.808,1.681-0.561,3.797-0.321,5.843c0.06,0.517,0.118,1.022,0.161,1.514    c0.097,1.101-0.718,2.07-1.818,2.166C18.715,63.694,18.655,63.696,18.598,63.696z"/></g><g><path fill="#ffffff" d="M13.561,97.35c-0.844,0-1.629-0.538-1.902-1.384c-0.54-1.664-1.232-3.456-1.482-3.835    c-0.091-0.123-0.479-0.518-0.792-0.835c-1.277-1.298-3.208-3.26-3.885-5.435C4.865,83.826,1.69,68.132,3.591,61.464    c0.528-1.87,1.785-3.222,3.539-3.8c1.54-0.508,3.629,0.041,4.229,0.22c1.059,0.316,1.661,1.43,1.346,2.488    c-0.315,1.06-1.432,1.662-2.488,1.346c-0.667-0.195-1.567-0.315-1.854-0.249c-0.173,0.058-0.681,0.225-0.924,1.087    c-1.438,5.046,1.053,19.463,1.879,22.117c0.389,1.249,1.971,2.856,2.916,3.817c0.555,0.563,0.956,0.971,1.229,1.363    c0.713,1.031,1.636,3.756,1.999,4.88c0.341,1.051-0.235,2.179-1.286,2.519C13.972,97.318,13.765,97.35,13.561,97.35z"/></g><g><path fill="#ffffff" d="M38.22,75.45c-0.929,0-1.762-0.65-1.957-1.596c-0.477-2.311-7.649-34.64-8.795-39.804c-0.19-0.046-0.497-0.075-0.94-0.021    c-0.259,0.031-0.602,0.532-0.796,0.945c0.263,2.861,1.684,18.308,2.343,23.794c0.132,1.097-0.65,2.092-1.747,2.224    c-1.085,0.131-2.092-0.649-2.224-1.747c-0.731-6.082-2.381-24.184-2.397-24.365c-0.022-0.256,0.003-0.513,0.077-0.758    c0.113-0.377,1.197-3.695,4.27-4.064c3.552-0.425,4.826,1.654,4.959,1.893c0.096,0.17,0.165,0.353,0.207,0.543    c0.345,1.552,8.44,38.025,8.962,40.553c0.223,1.082-0.473,2.14-1.555,2.363C38.489,75.438,38.354,75.45,38.22,75.45z"/></g><g><path fill="#ffffff" d="M36.462,94.681c-0.747,0-1.465-0.421-1.808-1.142c-0.474-0.997-0.05-2.19,0.948-2.665    c2.774-1.318,4.439-4.622,4.837-6.394c0.07-0.318,0.119-0.635,0.17-0.956c0.267-1.694,0.598-3.803,3.318-7.169    c3.45-4.269,6.869-5.123,8.512-5.534c1.149-0.289,2.416,0.01,3.642,0.298c0.293,0.069,0.693,0.163,1.045,0.229    c-0.064-0.514-0.418-1.048-1.471-1.977c-1.757-1.551-6.261-0.682-8.471,0.573c-5.374,3.054-8.939,1.729-10.985,0.079    c-0.859-0.693-0.994-1.953-0.301-2.812c0.694-0.86,1.952-0.993,2.812-0.301c1.567,1.266,3.755,1.116,6.497-0.443    c2.516-1.431,9.309-3.438,13.094-0.095c2.06,1.815,3.3,3.643,2.656,6.66c-0.173,0.81-0.618,1.463-1.289,1.888    c-1.323,0.84-2.939,0.461-4.503,0.094c-0.554-0.131-1.481-0.353-1.78-0.307c-1.383,0.347-3.738,0.936-6.347,4.162    c-2.047,2.533-2.257,3.865-2.479,5.276c-0.063,0.405-0.128,0.802-0.218,1.207c-0.701,3.126-3.197,7.316-7.023,9.135    C37.042,94.619,36.75,94.681,36.462,94.681z"/></g><g><path fill="#ffffff" d="M85.429,46.693c-0.952,0-1.852-0.127-2.562-0.3c-1.074-0.261-1.732-1.342-1.472-2.415c0.26-1.071,1.34-1.728,2.409-1.474    c1.053,0.249,3.291,0.371,3.695-0.469c0.809-1.685,0.561-3.805,0.32-5.855c-0.06-0.512-0.118-1.013-0.161-1.5    c-0.098-1.1,0.716-2.07,1.816-2.168c1.104-0.089,2.071,0.716,2.168,1.816c0.04,0.45,0.095,0.914,0.149,1.387    c0.277,2.371,0.623,5.322-0.688,8.052C90.016,46.038,87.588,46.693,85.429,46.693z"/></g><g><path fill="#ffffff" d="M78.299,49.843c-0.949,0-1.847-0.127-2.555-0.299c-1.073-0.26-1.733-1.341-1.473-2.414    c0.259-1.071,1.335-1.729,2.409-1.475c1.053,0.248,3.294,0.369,3.696-0.472c0.808-1.681,0.561-3.797,0.321-5.843    c-0.06-0.517-0.118-1.022-0.161-1.514c-0.097-1.101,0.718-2.07,1.818-2.166c1.097-0.112,2.07,0.719,2.166,1.818    c0.04,0.453,0.095,0.921,0.15,1.397c0.276,2.367,0.62,5.313-0.689,8.04C82.891,49.188,80.459,49.843,78.299,49.843z"/></g><g><path fill="#ffffff" d="M92.51,41.896c-1.177,0-2.32-0.305-2.74-0.43c-1.059-0.316-1.661-1.43-1.346-2.488c0.315-1.06,1.432-1.66,2.488-1.346    c0.667,0.195,1.567,0.316,1.854,0.249c0.173-0.058,0.681-0.225,0.924-1.087c1.438-5.046-1.053-19.463-1.879-22.117    c-0.389-1.249-1.971-2.856-2.916-3.817c-0.555-0.563-0.956-0.971-1.229-1.363c-0.713-1.031-1.636-3.756-1.999-4.88    c-0.341-1.051,0.235-2.179,1.286-2.519c1.054-0.34,2.18,0.235,2.519,1.286c0.54,1.664,1.232,3.456,1.482,3.835    c0.091,0.123,0.479,0.518,0.792,0.835c1.277,1.298,3.208,3.26,3.885,5.435c0.634,2.035,3.809,17.729,1.908,24.397    c-0.528,1.87-1.785,3.222-3.539,3.8C93.534,41.839,93.019,41.896,92.51,41.896z"/></g><g><path fill="#ffffff" d="M74.154,69.349c-2.856,0-3.916-1.732-4.037-1.949c-0.096-0.17-0.165-0.353-0.207-0.543    c-0.345-1.552-8.44-38.025-8.962-40.553c-0.223-1.082,0.473-2.14,1.555-2.363c1.083-0.227,2.14,0.474,2.363,1.555    c0.477,2.311,7.649,34.64,8.795,39.804c0.19,0.046,0.497,0.075,0.94,0.021c0.259-0.031,0.602-0.532,0.796-0.945    c-0.263-2.861-1.684-18.308-2.343-23.794c-0.132-1.097,0.65-2.092,1.747-2.224c1.093-0.13,2.092,0.65,2.224,1.747    c0.731,6.082,2.381,24.184,2.397,24.365c0.022,0.256-0.003,0.513-0.077,0.758c-0.113,0.377-1.197,3.695-4.27,4.064    C74.75,69.331,74.443,69.349,74.154,69.349z"/></g><g><path fill="#ffffff" d="M48.375,34.801c-2.021,0-4.026-0.479-5.548-1.823c-2.06-1.815-3.3-3.643-2.656-6.66c0.173-0.81,0.618-1.463,1.289-1.888    c1.323-0.839,2.939-0.461,4.503-0.094c0.553,0.131,1.484,0.354,1.78,0.307c1.383-0.347,3.738-0.936,6.347-4.162    c2.047-2.533,2.257-3.865,2.479-5.276c0.063-0.405,0.128-0.802,0.218-1.207c0.701-3.126,3.197-7.316,7.023-9.135    C64.806,4.39,66,4.812,66.475,5.811c0.474,0.997,0.05,2.19-0.948,2.665c-2.774,1.318-4.439,4.622-4.837,6.394    c-0.07,0.318-0.119,0.635-0.17,0.956c-0.267,1.694-0.598,3.803-3.318,7.169c-3.45,4.269-6.869,5.123-8.512,5.534    c-1.15,0.288-2.416-0.01-3.642-0.298c-0.293-0.069-0.693-0.163-1.045-0.229c0.064,0.514,0.418,1.048,1.471,1.977    c1.759,1.551,6.262,0.684,8.471-0.573c5.375-3.054,8.939-1.729,10.985-0.079c0.859,0.693,0.994,1.953,0.301,2.812    c-0.695,0.861-1.952,0.992-2.812,0.301c-1.566-1.266-3.755-1.115-6.497,0.443C54.416,33.738,51.381,34.801,48.375,34.801z"/></g></g></svg>
