<svg xmlns:dc="http://purl.org/dc/elements/1.1/" xmlns:cc="http://creativecommons.org/ns#" xmlns:rdf="http://www.w3.org/1999/02/22-rdf-syntax-ns#" xmlns:svg="http://www.w3.org/2000/svg" xmlns="http://www.w3.org/2000/svg" xmlns:sodipodi="http://sodipodi.sourceforge.net/DTD/sodipodi-0.dtd" xmlns:inkscape="http://www.inkscape.org/namespaces/inkscape" viewBox="0 0 80 80" version="1.1" x="0px" y="0px"><path style="" d="m 66.881683,4.9754349 c -1.647459,0.1586035 -3.340171,0.01958 -4.987608,0.1662543 -1.083239,0.033734 -2.142081,0.032771 -3.22532,0.066505 -0.530352,0.057032 -1.054404,0.04384 -1.596034,0.066505 -2.403458,0.022562 -4.83391,0.1436435 -7.248658,0.1330034 -1.500752,0.124091 -2.988096,0.087888 -4.488847,0.1330025 -1.534609,0.1473349 -3.087253,0.030856 -4.621851,0.1662533 -1.286361,0.033734 -2.582011,0.022666 -3.857083,0.033196 -1.466905,0.1240911 -2.92219,0.099273 -4.389095,0.1330025 -1.692584,0.1466442 -3.394777,0.01958 -5.087361,0.1662533 -1.038125,0.033734 -2.087453,0.032772 -3.125567,0.066505 -0.76731,0.079056 -1.526991,0.032554 -2.2943,0.066505 -1.952111,0 -3.888739,0.1556136 -5.852127,0.1330026 -1.568466,0.113452 -3.175111,0.110393 -4.754855,0.133003 -2.0085339,0.169318 -4.0098445,-0.0032 -6.0183795,0.199505 -0.236958,0.214389 -0.4494115,0.49576 -0.7315159,0.665014 0.033943,0.191832 -0.048094,0.496899 0.1662536,0.598512 0.338519,0.157997 0.7142255,0.120501 1.0640231,0.199506 0.067672,0.496504 0.4494114,0.846632 0.7315159,1.230276 0.5190517,0.7560302 0.9203799,1.6350302 0.8977694,2.5603052 -0.011279,0.462638 0.093315,0.957067 -0.1662536,1.363279 -0.2031113,0.361077 -0.5070283,0.647128 -0.6650144,1.030773 -0.2031114,0.02255 -0.4862585,-0.01553 -0.5652623,0.232755 -0.1241183,0.169254 -0.070757,0.4316 0.1662536,0.46551 2.0198141,0.598045 4.0650681,1.130993 6.0848811,1.729037 0.496484,0.191195 1.02176,0 1.529533,0 2.29063,-0.02255 4.592272,-0.121165 6.882901,-0.166253 18.618382,-0.519052 37.242829,-1.02176 55.861212,-1.529533 0.383665,0.0113 0.626347,-0.318228 0.93102,-0.498761 0.530341,-0.32724 0.773683,-0.954056 0.897769,-1.529533 0,-0.880149 0.190588,-1.746658 0.06651,-2.626807 -0.0797,-0.6206022 -0.02138,-1.2301382 -0.06651,-1.8620402 C 78.250418,8.1501759 77.967857,7.8635379 77.82117,7.5024509 77.663184,7.1300849 77.495877,6.6741939 77.089655,6.5049289 76.627017,6.222878 76.067894,6.3511789 75.560121,6.2721739 72.942263,5.8659517 70.330809,5.4481202 67.712951,5.0418979 67.430858,4.996784 67.163767,4.9527364 66.881683,4.9753924 z m -60.1173045,3.19207 c 1.4669044,0.191833 2.9441519,0.351467 4.4223455,0.532011 0.248236,0.135408 0.330102,0.428056 0.46551,0.665014 C 10.377163,9.3538859 9.1254458,9.1003229 7.8616523,8.9987729 7.3425899,9.0094159 7.1254653,8.4496089 6.7643785,8.1675049 z m 1.2635277,1.795539 c 1.3314968,0.05639 2.6366168,0.3419861 3.9568348,0.4322591 0.191812,0.451358 0.418555,0.867391 0.565262,1.330028 -1.3992,-0.135408 -2.8016778,-0.36215 -4.1895901,-0.565262 C 8.2250051,10.776414 8.1294563,10.357966 8.0279062,9.9630439 z M 8.3604129,12.12434 c 1.3992016,0.112786 2.7903901,0.396615 4.1895901,0.532011 l 0,1.33003 -4.222841,-0.798018 C 8.349827,12.838566 8.37238,12.474148 8.360358,12.12434 z M 7.894903,14.052882 c 1.5345978,0.259526 3.06528,0.571147 4.588599,0.864519 -0.124092,0.270826 -0.210794,0.559846 -0.199504,0.864519 -1.568466,-0.417502 -3.1757042,-0.789601 -4.7216022,-1.263528 0.1127864,-0.157965 0.2309461,-0.307545 0.3325072,-0.46551 z" fill="#000000" stroke="none"></path><path style="" d="m 78.25343,15.050404 c -0.264463,0.04181 -0.511487,0.363353 -0.731516,0.498761 -0.507773,0.473873 -1.241417,0.309364 -1.86204,0.365757 C 54.705737,16.490399 33.441917,16.77117 12.487758,17.43692 9.6455962,16.651511 7.0620509,15.484875 4.1428044,14.664164 c 0.028196,0.124123 -0.6577871,0.485489 -0.3141856,0.849675 0.3436015,0.364186 1.7167883,0.731191 1.705483,0.866593 -0.022557,0.609345 0.232223,1.186216 0.2660058,1.79554 0.034475,0.868848 -0.134865,1.746657 -0.033198,2.626806 0.033729,0.406223 0.1780962,0.812765 0.1330028,1.230277 -0.8015431,0.294737 -2.3149618,0.470037 -2.3149618,0.470037 L 3.234963,23.161693 c 0,0 5.1521571,0.925458 7.453053,1.331915 6.40924,1.105808 12.79839,2.209179 19.218918,3.258571 0.846292,0.214422 1.714014,-0.06533 2.560306,-0.133003 15.086528,-1.906984 30.189665,-3.812139 45.287482,-5.719123 0.282105,-0.03384 0.629359,-0.105658 0.764767,-0.39901 0.485205,-1.004267 0.895364,-2.074962 1.030772,-3.192069 0,-0.564198 0.03373,-1.12031 0,-1.695787 -0.236958,-0.552909 -0.635839,-1.044924 -1.030772,-1.496282 -0.09587,-0.05927 -0.177852,-0.08044 -0.266006,-0.0665 z M 6.3653698,16.679689 9.8234449,17.810213 7.8616523,17.710513 6.5981248,17.57751 6.3653698,16.67974 z M 29.707376,18.042968 30.638397,19.506 17.105354,18.475228 z M 6.7311278,18.57498 c 1.2073791,0.01064 2.4169495,0.153762 3.6243292,0.232755 6.251274,0.496484 12.502144,1.033028 18.753407,1.529533 0.609323,0.06768 1.219466,0.110925 1.828789,0.0997 0.101508,0.293384 0.121685,0.593119 0.133004,0.89777 -1.771578,-0.09034 -3.526589,-0.352075 -5.286866,-0.498761 C 22.319641,20.4749 18.884995,20.13304 15.409567,19.771952 12.53217,19.501148 9.6417739,19.155681 6.7643785,18.907434 6.7537382,18.783342 6.7422468,18.699045 6.7311809,18.574926 z m -0.066502,1.230277 c 8.1695282,0.835013 16.3475452,1.680752 24.5057822,2.527055 0.06768,0.338508 0.121698,0.680974 0.133004,1.030772 -8.214653,-1.004268 -16.457384,-1.96574 -24.6720369,-2.992565 0.01064,-0.180554 0.033198,-0.384708 0.033198,-0.565262 z m 0.1330031,1.562784 c 1.3314865,0.06768 2.6253494,0.296851 3.9568361,0.432259 6.815473,0.823713 13.622444,1.659397 20.449194,2.460553 -0.01197,0.315951 -0.06405,0.604398 -0.199504,0.89777 -0.722174,-0.02266 -1.439134,-0.187034 -2.161297,-0.266006 C 21.767881,23.88835 14.681924,22.904319 7.5956465,21.900053 7.324842,21.877387 7.0571551,21.812797 6.7976292,21.733798 c -0.01064,-0.09033 0,-0.275486 -3e-7,-0.365757 z M 6.5316231,22.73132 c 0.3949229,0 0.7801098,0.02075 1.1637753,0.0997 7.6166076,1.071961 15.2266396,2.164638 22.8432466,3.22532 -0.135408,0.259526 -0.252918,0.527212 -0.365759,0.798018 -7.887432,-1.207381 -15.787081,-2.557597 -23.6745133,-3.787543 -0.2031114,-0.04511 0.01064,-0.222708 0.033197,-0.335548 z" fill="#000000" stroke="none"></path><path style="" d="m 74.994859,22.73132 c -0.846281,-0.03384 -1.658801,0.175692 -2.493804,0.266006 -13.619645,1.884396 -27.212263,3.768206 -40.831886,5.652623 -0.338519,0.04522 -0.692263,0.133662 -1.030772,0.0997 C 28.246207,28.208018 25.837737,27.8597 23.42299,27.419619 15.826883,26.328509 9.4852534,24.7936 2.7077905,23.496033 c -0.4288332,0.06768 -0.483407,0.729112 -0.099699,0.86452 0.6883059,0.293383 1.4610846,0.351467 2.1945476,0.532011 0.1015079,0.959121 0.707703,1.767438 0.7980173,2.726559 0.056393,0.55292 0.2226469,1.076377 0.1662536,1.629286 -0.1128396,0.530351 -0.3093646,1.043125 -0.3657579,1.596034 -0.4964838,0.338519 -1.2212644,0.159646 -1.7290375,0.532011 -0.1015078,0.22568 -0.126523,0.574179 0.1330029,0.698265 0.2595258,0.146687 0.5491635,0.208942 0.8312681,0.299257 1.5797444,0.496484 3.1751086,0.977827 4.7548529,1.463032 3.9493445,1.060682 7.8878915,2.098136 11.8372575,3.158818 0.191832,0.05703 0.395402,0.144846 0.598513,0.0997 0.756031,-0.157975 1.52699,-0.230892 2.2943,-0.332507 9.862111,-1.1961 19.73103,-2.428228 29.593141,-3.624329 7.018563,-0.868849 14.040424,-1.668282 21.047707,-2.593555 0.372366,-0.01131 0.640032,-0.282563 0.798017,-0.598514 0.293372,-0.586755 0.774875,-1.140473 0.831269,-1.828789 0.05576,-0.925275 0.04575,-1.834536 -0.0332,-2.75981 -0.101504,-0.710886 -0.527209,-1.351854 -0.798013,-1.995045 -0.135408,-0.248236 -0.238033,-0.609153 -0.565263,-0.631763 z M 5.7336061,25.092122 c 5.3372779,1.015545 10.6563309,2.109414 15.9935979,3.158818 0.564187,0.05639 0.925008,0.558059 1.263527,0.964271 C 17.924279,28.267369 12.861613,27.28153 7.7951508,26.322399 7.2309526,26.232062 6.6748409,26.068277 6.0993641,26.023142 5.9752776,25.707191 5.8464352,25.408073 5.7336061,25.092122 z m 0.6982651,1.928542 c 5.4388388,0.992988 10.8759978,2.076759 16.3261048,3.092316 0.157964,0.02267 0.307545,0 0.46551,0 0.02266,0.473916 0.0332,0.967144 0.0332,1.429781 -1.624872,-0.406212 -3.2517,-0.659002 -4.887858,-0.997522 C 14.780559,29.834355 11.183861,29.116799 7.5955933,28.417194 7.2570744,28.349521 6.9365906,28.285999 6.5980716,28.184439 6.5754079,27.789505 6.4769964,27.415607 6.4318181,27.020664 z m 0.365758,2.161296 c 1.8279913,0.42879 3.6803498,0.71363 5.5196188,1.097273 3.441584,0.677039 6.888115,1.351257 10.340976,2.028295 0.169254,0.05639 0.362757,-0.02139 0.532011,-0.0665 -0.02266,0.383644 -0.07714,0.791409 -0.0997,1.163775 C 18.012794,32.310268 12.961417,31.185563 7.8949552,30.079734 7.4661645,30.000674 7.0602185,29.892104 6.6314278,29.846979 6.6651568,29.6213 6.6848418,29.396366 6.7976814,29.181965 z m -0.4987608,1.562784 c 0.4964945,0.03373 0.9891052,0.164445 1.4630317,0.266005 5.0326049,1.08324 10.0632229,2.175332 15.0958279,3.258571 -0.07905,0.44008 -0.229744,0.890556 -0.399008,1.296779 -1.433048,-0.372366 -2.856296,-0.714226 -4.289344,-1.064024 -1.162242,-0.282093 -2.35165,-0.480863 -3.491325,-0.864518 C 11.890937,32.779996 9.0972593,31.901571 6.2988684,31.044 z" fill="#000000" stroke="none"></path><path style="" d="m 74.529349,31.343257 c -0.368663,0.01745 -0.733367,0.107666 -1.097274,0.133003 -16.638448,2.397318 -51.605119,6.417389 -51.605119,6.417389 0,0 -6.666041,-1.601184 -10.141471,-2.560305 -0.259526,-0.07895 -0.58483,-0.04874 -0.731516,0.199504 -0.157965,0.507773 0.231552,0.944576 0.299256,1.429781 0.06768,0.733442 -0.05352,1.472384 -0.166254,2.194547 -0.349797,0.214391 -0.860304,0.204187 -1.0972728,0.565263 7.0072838,1.906984 13.9958838,3.912509 21.0144568,5.785625 0.21439,0.05576 0.439346,0.06714 0.665014,0.0332 14.183833,-2.877384 28.35513,-5.723262 42.527673,-8.611936 0.631902,-0.101508 0.870998,-0.778322 1.130524,-1.263527 0.304587,-0.936554 0.165583,-1.933671 0.199504,-2.892814 -0.02255,-0.338518 0.08193,-0.748678 -0.166253,-1.030771 -0.124118,-0.157965 -0.284977,-0.308695 -0.46551,-0.399009 -0.124132,-0.01692 -0.242874,-0.0053 -0.365758,0 z m -62.411605,5.054109 c 2.008535,0.530331 3.976596,1.110223 5.985131,1.629286 -1.895695,-0.428791 -3.756928,-0.857315 -5.652624,-1.263527 -0.203112,-0.01064 -0.298661,-0.173936 -0.332507,-0.365759 z m 0.03325,1.230277 c 5.258297,1.162243 10.52453,2.384306 15.794093,3.557828 1.466905,0.327239 2.910902,0.726717 4.389096,0.997521 -0.01197,0.32723 -0.03033,0.648916 -0.199505,0.93102 -6.589782,-1.760287 -13.161135,-3.493315 -19.750929,-5.253614 -0.112787,-0.03394 -0.187609,-0.13126 -0.232755,-0.232755 z m 17.622883,0.232755 c 0.222849,-0.01596 0.471384,-5.96e-4 0.764767,0.0332 0.868849,0.135407 1.572264,0.882149 1.662536,1.762288 -1.726431,-0.349797 -6.184635,-1.197026 -6.184635,-1.197026 0,0 2.469204,-0.287627 3.025816,-0.498761 0.293384,-0.03384 0.508667,-0.08374 0.731516,-0.0997 z m -17.689385,0.89777 c 1.42178,0.315951 2.812363,0.747476 4.222843,1.097273 5.134167,1.365355 10.238945,2.747064 15.361833,4.08984 -0.101507,0.259525 -0.270677,0.701254 -0.631763,0.53201 -6.330246,-1.794145 -12.667195,-3.581193 -18.986164,-5.386616 0,-0.07906 0.02128,-0.253514 0.0332,-0.332507 z m 12.469022,0.0997 c 0,0 4.94759,1.114064 6.849648,1.596034 0.293373,0.07906 0.593108,0.143686 0.89777,0.166254 0.01197,0.203111 0.02192,0.395401 0.0332,0.598513 -3.193336,-0.64317 -6.371583,-1.451009 -9.576208,-2.128046 1.060682,-0.203112 1.795539,-0.232755 1.795539,-0.232755 z" fill="#000000" stroke="none"></path><path style="" d="m 68.510968,38.558664 c -0.22004,0.01831 -0.450624,0.07661 -0.665014,0.133002 -12.096304,2.584012 -24.180222,5.163407 -36.276537,7.747418 -0.270804,0.05639 -0.54977,-0.07661 -0.798017,-0.133002 C 23.764117,44.297557 16.730977,42.362121 9.7236923,40.387453 9.2836238,40.308501 9.0177349,39.950523 8.825923,39.589435 c -0.5416301,-0.03384 -1.065704,0.03203 -1.5960344,0.0997 -1.6248803,0.146686 -3.2516971,0.318824 -4.8878561,0.46551 -0.406212,0.03384 -0.9719424,0.0032 -1.1637752,0.46551 -0.078951,0.327229 0.2172629,0.551558 0.4655101,0.698265 0.9139959,0.552909 1.8018805,1.16485 2.6933085,1.729037 -0.022557,0.789879 -0.1556134,1.570925 -0.1662537,2.360802 0,0.304662 -0.05469,0.626348 -0.099699,0.93102 -0.4626373,0.03384 -0.9006424,0.121166 -1.3632797,0.166253 -0.2595258,0.06768 -0.5955123,0.05096 -0.7647665,0.299257 -0.1806072,0.21439 -0.1033166,0.518329 0.099699,0.665014 0.6883165,0.586767 1.4510189,1.119715 2.1280461,1.729038 0.3836548,0.372366 0.779514,0.714821 1.197026,1.030772 0.9478424,0.620613 1.8018805,1.406479 2.6933088,2.094796 1.4781826,1.150954 2.8770641,2.385497 4.3890941,3.491325 0.451359,0.406212 0.88996,0.846016 1.330029,1.263528 0.236969,0.259505 0.626348,0.133535 0.931022,0.0997 2.290618,-0.406222 4.592281,-0.790793 6.882898,-1.197026 1.64746,-0.361076 3.317583,-0.626348 4.987609,-0.93102 1.117086,-0.225679 2.251909,-0.330103 3.391573,-0.46551 14.74802,-2.471162 29.475429,-4.955039 44.22346,-7.414911 0.349797,-0.05639 0.784333,-0.09311 0.93102,-0.46551 0.349851,-1.038125 0.510593,-2.142081 0.46551,-3.22532 -0.07895,-0.44008 -0.18647,-0.867987 -0.299257,-1.296778 -0.135396,-0.620602 -0.493344,-1.154157 -0.798017,-1.695787 -0.135407,-0.270805 -0.427461,-0.386506 -0.698265,-0.46551 -1.545887,-0.462638 -3.075952,-0.922615 -4.62185,-1.39653 -0.21439,-0.07331 -0.444975,-0.0848 -0.665015,-0.06651 z m 5.253614,2.560305 0.232756,0.46551 -36.675546,4.921107 -0.93102,0.166253 -0.0997,0.0332 -0.0332,0 c -0.198546,0.02692 -16.535897,2.230288 -22.244734,2.959314 -0.01197,-0.146686 -0.06651,-0.46551 -0.06651,-0.46551 l 21.712722,-2.859562 0.0332,0 38.072076,-5.220364 z M 5.2015945,43.579522 c 2.8226835,1.900526 5.2781185,3.199933 7.7474175,5.187113 0.293383,0.880149 0.0064,0.638105 0.266006,1.529533 -2.798391,-2.042381 -5.2589553,-3.677349 -8.0799249,-5.685873 0.1016142,-0.451349 0.04405,-0.568135 0.066502,-1.030773 z m -0.1330028,2.028295 8.2794283,5.818876 c 0,0 0.133004,1.758085 0.133004,1.995043 -2.787113,-2.087518 -8.4789338,-6.517141 -8.4789338,-6.517141 l 0.066502,-1.296778 z" fill="#000000" stroke="none"></path><path style="" d="m 67.347193,49.065892 c -0.203111,0.01263 -0.412331,0.07724 -0.598513,0.0997 -9.094801,1.512041 -18.192763,3.010068 -27.298842,4.522098 -1.500751,0.22568 -6.645665,1.127513 -8.146426,1.296779 12.120328,-0.568349 24.494693,-1.292927 36.708796,-2.128047 0.124091,0.225679 0.156815,0.116923 0.06651,0.399009 0,0.21439 -0.241043,0.265346 -0.399008,0.299257 -6.657486,0.349797 -13.337487,0.634636 -19.983683,1.097273 -1.782866,0.101508 -3.53726,0.287415 -5.320116,0.332508 -1.1848,0.191779 -2.394988,-0.03437 -3.591078,0.0332 -3.057928,0.157964 -6.08602,0.296256 -9.143948,0.46551 -2.076228,0.05639 -4.109002,0.537896 -6.151384,0.831268 -2.911252,0.485206 -5.844986,0.977826 -8.744939,1.463032 -0.236958,0.03373 -0.48327,0.122895 -0.731517,0.0665 -0.654454,-0.44007 -1.850022,-1.278286 -2.52706,-1.695788 -2.6170496,0.214837 -4.9896399,0.435856 -7.8139189,0.46551 C 3.3673725,56.500862 3.648977,56.296687 3.7052632,56.048439 6.1244473,55.838156 8.5285227,55.746119 11.219926,55.61618 9.0308538,53.833332 6.8698764,52.023099 4.6695298,50.262811 4.4551291,50.0597 3.9047632,50.145755 3.9047632,50.495566 c -0.315951,1.51203 -0.7706506,2.976807 -1.064023,4.488847 0.022663,0.936553 -0.1901197,1.889759 -0.099699,2.826311 0.2595258,1.09454 0.5177217,2.152743 0.6982651,3.258571 0.045115,0.304662 0.1816075,0.754127 0.5652623,0.731516 2.9789454,-0.07895 5.9654988,-0.252972 8.9444434,-0.365757 18.766155,-0.230862 39.248397,-1.984064 55.561956,-1.995044 0.123347,-0.357288 0.320484,-1.049329 0.365758,-1.429781 -0.04511,-0.688316 0.09853,-1.339977 0.166254,-2.028294 -0.0565,-1.342786 -0.31294,-2.702512 -0.166254,-4.056588 -0.157964,-0.451348 -0.195301,-0.934489 -0.432259,-1.36328 -0.236969,-0.41749 -0.37343,-0.889959 -0.565262,-1.330029 -0.152337,-0.152336 -0.328901,-0.178947 -0.532012,-0.166253 z m 2.72656,6.284386 c -0.174905,0.01692 -0.331306,0.0798 -0.39901,0.266005 -0.0096,0.996522 0.015,1.840143 -0.133002,2.826311 0.677037,-0.146685 1.351256,-0.18647 2.028293,-0.299255 0.496484,-0.05639 0.9885,-0.188864 1.496283,-0.166255 0.07906,0.214391 0.143112,0.439346 0.199504,0.665015 -0.248247,0.112893 -0.493961,0.165722 -0.764766,0.199505 -1.174618,0.138195 -2.009908,0.329453 -3.192069,0.46551 l -0.332508,0.831267 -7.248656,0.232756 c 0,0 -30.863512,4.146742 -48.346551,6.517141 -0.259525,0.05639 -0.57355,-0.04033 -0.731516,-0.266006 -0.01197,-0.191822 0,-0.598513 0,-0.598513 l 45.420487,-5.752375 -43.7247,1.79554 c 0,0 -1.779909,0.04213 -2.660057,0.166253 -0.688317,0.05639 -1.406478,-10e-4 -2.0947952,0.0665 -0.8575707,0.12477 -1.7359749,0.02021 -2.5935563,0.133003 -0.3497975,0.04437 -0.6922641,0.04384 -1.0307724,0.0332 -1.1074767,-0.01134 -0.8735128,0.03117 -1.6715171,0.04257 1.974678,3.227191 4.7069618,7.824704 6.659072,11.063176 0.236958,0.361076 0.415565,0.781322 0.731516,1.097273 0.73933,0.378981 1.584092,0.313513 2.394052,0.166245 19.893466,-2.82097 39.791581,-5.624702 59.685046,-8.445683 0.282084,-0.03384 0.530809,-0.216667 0.598513,-0.498761 0.214401,-0.778587 0.395402,-1.548962 0.598513,-2.32755 0.09034,-0.293372 0.07831,-0.604397 0.0332,-0.897769 -0.169254,-0.992989 -0.240448,-1.999598 -0.432259,-2.992565 -0.214401,-0.756031 -0.527799,-1.505019 -0.764767,-2.26105 -0.04511,-0.236958 -0.229148,-0.375195 -0.43226,-0.46551 -0.936563,-0.485205 -1.867786,-0.988498 -2.79306,-1.496282 -0.135408,-0.08459 -0.323857,-0.116736 -0.498761,-0.0997 z M 8.7594222,62.931442 c 0.2595252,0.03373 0.6287731,-0.09331 0.7980168,0.166253 0.733452,1.004268 1.338178,2.099924 2.128046,3.059067 0.135407,0.361076 0.03255,0.758159 0.0665,1.130524 -1.004262,-1.455605 -1.999591,-2.900239 -2.9925628,-4.355844 z m -0.8343388,0.150641 c 1.2525144,1.873117 2.4301076,3.773095 3.6938996,5.634934 0.270804,0.394933 0.222073,0.878669 0.199504,1.330028 -0.440069,-0.47393 -0.702947,-1.065708 -1.064022,-1.596038 -0.9027176,-1.399201 -1.7793123,-2.80168 -2.693308,-4.189591 -0.2256797,-0.372364 -0.4731821,-0.78347 -0.6650148,-1.178393 0.1741319,-0.07221 0.3745532,-6.65e-4 0.5289412,-9.4e-4 z m -1.1390026,0.04157 c 1.6248699,2.561445 3.3742772,5.636815 4.9991572,8.18697 0.04511,0.157965 0.08842,0.894758 0.0997,1.064023 C 11.286892,71.528365 10.819849,70.616689 10.255652,69.74784 9.3078086,68.280935 8.4104328,66.792399 7.4625906,65.325494 7.1804861,64.851567 6.4764305,63.554049 6.2620405,63.034997 c 0.454669,0.04664 0.2873627,0.04862 0.5240403,0.08866 z" fill="#000000" stroke="none"></path></svg>